# xmcd CD database file
#
# Track frame offsets:
#	150
#	12757
#	36749
#	53476
#	66146
#	80675
#	90598
#	107439
#	120859
#	139324
#	154158
#	175103
#	191867
#	208508
#	228785
#	252489
#
# Disc length: 3540 seconds
#
# Revision: 4
# Processed by: cddbd v1.5.2PL0 Copyright (c) Steve Scherf et al.
# Submitted via: CDex 1.51
#
DISCID=d10dd210
DTITLE=STEVIE RAY VAUGHAN - The First Thunder
DYEAR=1979
DGENRE=Blues Rock
TTITLE0=Rude Mood
TTITLE1=Dirty Pool
TTITLE2=I'm Crying
TTITLE3=You're Gonna Miss Me Baby
TTITLE4=Pride And Joy
TTITLE5=Love Struck Baby
TTITLE6=Natural Born Lover
TTITLE7=Tina Nina Nu
TTITLE8=Scratch My Back
TTITLE9=I'll Change
TTITLE10=Shake A Hand, Shake A Hand
TTITLE11=Oh Baby
TTITLE12=Sugar Coated Love
TTITLE13=Love In Vain
TTITLE14=You Can Have My Husban But Please Don't Mess With My Man
TTITLE15=My Baby's Gone
EXTD=YEAR: 1979
EXTT0=
EXTT1=
EXTT2=
EXTT3=
EXTT4=
EXTT5=
EXTT6=with Lou Ann Barton
EXTT7=with Lou Ann Barton
EXTT8=with Lou Ann Barton
EXTT9=with Lou Ann Barton
EXTT10=with Lou Ann Barton
EXTT11=with Lou Ann Barton
EXTT12=with Lou Ann Barton
EXTT13=
EXTT14=with Lou Ann Barton
EXTT15=with Lou Ann Barton
PLAYORDER=
